<?xml version="1.0" encoding="iso-8859-1"?>
<!-- Generator: Adobe Illustrator 19.0.0, SVG Export Plug-In . SVG Version: 6.00 Build 0)  -->
<svg version="1.1" id="Capa_1" xmlns="http://www.w3.org/2000/svg" xmlns:xlink="http://www.w3.org/1999/xlink" x="0px" y="0px"
	 viewBox="0 0 512.001 512.001" style="enable-background:new 0 0 512.001 512.001;" xml:space="preserve">
<path style="fill:#FFE477;" d="M471.768,165.333c-35.399,35.399-201.486,73.295-201.486,73.295s37.896-166.088,73.295-201.486
	s92.792-35.399,128.191,0S507.167,129.934,471.768,165.333z"/>
<path style="fill:#FFE477;" d="M162.195,474.906c35.399-35.399,73.295-201.486,73.295-201.486S69.403,311.317,34.004,346.716
	s-35.399,92.792,0,128.191S126.796,510.305,162.195,474.906z"/>
<path style="fill:#FFE477;" d="M454.622,240.763c-35.612-9.252-154.968,28.571-154.968,28.571s85.852,91.138,121.464,100.39
	s71.981-12.116,81.233-47.728S490.234,250.015,454.622,240.763z"/>
<path style="fill:#FFE477;" d="M103.479,121.49c34.461,12.895,110.398,112.445,110.398,112.445S91.241,259.176,56.781,246.281
	s-51.942-51.284-39.047-85.744S69.019,108.594,103.479,121.49z"/>
<path style="fill:#FFE477;" d="M268.113,63.09c4.813,26.891-30.012,113.081-30.012,113.081s-62.555-68.764-67.367-95.654
	c-4.813-26.891,13.085-52.591,39.976-57.403S263.3,36.199,268.113,63.09z"/>
<path style="fill:#FFE477;" d="M252.174,409.772c-4.443-23.083,24.551-97.639,24.551-97.639s54.6,58.463,59.044,81.548
	c4.443,23.083-10.667,45.4-33.751,49.843C278.935,447.967,256.618,432.857,252.174,409.772z"/>
<path style="fill:#FFB655;" d="M373.581,37.142c13.87-13.87,31.116-22.305,49.094-25.306c-27.904-4.657-57.568,3.777-79.097,25.306
	c-35.399,35.399-73.295,201.486-73.295,201.486s12.713-2.901,31.854-7.847C310.148,197.451,342.807,67.915,373.581,37.142z"/>
<path style="fill:#FFB655;" d="M64.007,474.906c-35.399-35.399-35.399-92.792,0-128.191
	c25.605-25.606,119.588-52.517,169.631-65.448c1.204-5.011,1.851-7.847,1.851-7.847S69.403,311.317,34.004,346.716
	c-35.399,35.399-35.399,92.792,0,128.191c21.529,21.529,51.193,29.964,79.097,25.306C95.124,497.211,77.877,488.777,64.007,474.906z
	"/>
<path style="fill:#FFB655;" d="M451.121,369.724c-35.612-9.252-121.464-100.39-121.464-100.39s74.465-23.597,123.309-28.955
	c-37.504-7.744-153.312,28.955-153.312,28.955s85.852,91.138,121.464,100.39c10.783,2.801,21.635,2.795,31.783,0.437
	C452.307,370.024,451.714,369.879,451.121,369.724z"/>
<path style="fill:#FFB655;" d="M86.784,246.281c-34.461-12.895-51.942-51.284-39.047-85.744
	c8.127-21.718,26.381-36.692,47.395-41.568c-32.103-7.462-65.536,9.87-77.398,41.568c-12.895,34.461,4.586,72.85,39.047,85.744
	c9.914,3.709,27.126,4.263,46.616,3.169C96.759,248.905,91.085,247.89,86.784,246.281z"/>
<path style="fill:#FFB655;" d="M200.736,80.517c-4.426-24.737,10.364-48.466,33.696-55.855c-7.424-2.37-15.518-3.016-23.723-1.548
	c-26.891,4.813-44.789,30.512-39.976,57.403c4.813,26.891,67.367,95.654,67.367,95.654s4.022-9.954,9.144-24.154
	C228.576,129.536,203.701,97.081,200.736,80.517z"/>
<path style="fill:#FFB655;" d="M282.178,409.772c-2.802-14.558,7.694-49.585,15.83-73.476
	c-11.567-13.761-21.282-24.164-21.282-24.164s-28.994,74.556-24.551,97.639c4.443,23.084,26.759,38.195,49.843,33.752
	c2.41-0.464,4.734-1.123,6.957-1.958C295.597,436.515,285.078,424.843,282.178,409.772z"/>
<path d="M260.315,248.596l11.636-2.655c6.868-1.567,168.614-38.797,205.121-75.304c18.538-18.537,28.747-43.184,28.747-69.399
	s-10.209-50.861-28.747-69.399C458.535,13.3,433.889,3.091,407.673,3.091c-26.216,0-50.862,10.209-69.399,28.747
	c-36.507,36.507-73.737,198.254-75.304,205.122L260.315,248.596z M348.881,42.447c15.704-15.704,36.583-24.353,58.792-24.353
	c22.208,0,43.088,8.649,58.791,24.353s24.353,36.583,24.353,58.791c0,22.209-8.649,43.088-24.353,58.792
	c-28.17,28.17-147.884,59.147-186.092,68.48C293.04,176.191,323.224,68.103,348.881,42.447z"/>
<g>
	<path style="fill:#FFFFFF;" d="M459.318,95.364l14.908-1.678c-0.631-5.609-1.966-11.117-3.966-16.371l-14.02,5.339
		C457.792,86.73,458.828,91.007,459.318,95.364z"/>
	<path style="fill:#FFFFFF;" d="M465.377,67.17c-2.853-4.834-6.327-9.313-10.326-13.311l-10.607,10.607
		c3.106,3.106,5.804,6.582,8.015,10.329L465.377,67.17z"/>
	<path style="fill:#FFFFFF;" d="M459.569,104.102c-0.699,12.811-6.071,24.853-15.126,33.908
		c-1.086,1.086-12.027,11.112-60.985,28.288l4.967,14.156c48.375-16.971,62.711-27.918,66.628-31.836
		c11.671-11.671,18.596-27.19,19.497-43.697L459.569,104.102z"/>
</g>
<path d="M233.822,266.107c-6.868,1.567-168.614,38.797-205.122,75.304c-38.267,38.267-38.267,100.532,0,138.799
	c19.133,19.133,44.267,28.7,69.399,28.7s50.265-9.567,69.399-28.7c36.507-36.507,73.737-198.254,75.304-205.122l2.655-11.636
	L233.822,266.107z M156.891,469.603c-15.704,15.704-36.583,24.353-58.792,24.353c-22.208,0-43.088-8.648-58.791-24.353
	c-15.704-15.705-24.353-36.583-24.353-58.791c0-22.209,8.648-43.088,24.353-58.792c28.159-28.159,147.801-59.125,186.054-68.47
	C216.016,321.802,185.051,441.444,156.891,469.603z"/>
<g>
	<path style="fill:#FFFFFF;" d="M173.471,402.223l-14.064-5.218c-14.926,40.237-23.594,49.636-24.535,50.575l10.606,10.608
		C148.935,454.735,158.582,442.363,173.471,402.223z"/>
	<path style="fill:#FFFFFF;" d="M189.391,354.367l-14.358-4.347c-1.474,4.868-2.958,9.651-4.413,14.219l14.294,4.553
		C186.39,364.156,187.896,359.303,189.391,354.367z"/>
	<path style="fill:#FFFFFF;" d="M181.802,378.38l-14.243-4.711c-1.604,4.853-3.218,9.58-4.796,14.052l14.147,4.99
		C178.521,388.146,180.166,383.323,181.802,378.38z"/>
</g>
<path d="M456.508,233.504L456.508,233.504c-36.641-9.523-146.693,24.743-159.121,28.681l-11.378,3.605l8.185,8.688
	c8.939,9.489,88.392,92.986,125.037,102.507c6.227,1.618,12.473,2.39,18.627,2.39c32.94,0,63.093-22.161,71.753-55.492
	C519.888,284.325,496.067,243.782,456.508,233.504z M495.09,320.111c-8.197,31.551-40.535,50.551-72.088,42.354
	c-24.702-6.418-81.261-60.548-109.504-89.533c38.776-11.573,114.526-31.327,139.237-24.909l0,0
	c15.285,3.971,28.107,13.656,36.108,27.272C496.843,288.911,499.062,304.826,495.09,320.111z"/>
<g>
	<path style="fill:#FFFFFF;" d="M459.686,322.76l11.68,9.414c3.833-4.755,6.56-10.179,8.104-16.121l-14.52-3.773
		C463.945,316.146,462.174,319.673,459.686,322.76z"/>
	<path style="fill:#FFFFFF;" d="M411.812,320.373c-5.073-3.784-10.673-8.253-16.646-13.28l-9.66,11.478
		c6.196,5.215,12.028,9.867,17.335,13.826c7.606,5.675,17.976,12.785,24.222,14.447c2.239,0.582,4.534,0.986,6.824,1.2l1.397-14.937
		c-1.489-0.14-2.985-0.403-4.406-0.772C429.248,331.901,423.165,328.844,411.812,320.373z"/>
	<path style="fill:#FFFFFF;" d="M443.118,332.724l2.842,14.731c5.907-1.14,11.643-3.573,16.589-7.04l-8.609-12.285
		C450.71,330.393,446.967,331.981,443.118,332.724z"/>
</g>
<path d="M54.152,253.306c7.928,2.966,19.728,4.137,33.422,4.136c47.555,0,117.901-14.121,127.815-16.162l11.69-2.406l-7.239-9.49
	c-7.907-10.365-78.272-101.651-113.733-114.92c-18.541-6.939-38.677-6.241-56.696,1.963c-18.019,8.206-31.763,22.936-38.702,41.479
	s-6.242,38.678,1.963,56.696C20.878,232.623,35.609,246.367,54.152,253.306z M24.76,163.165
	c5.535-14.791,16.497-26.54,30.868-33.084c7.818-3.56,16.133-5.348,24.474-5.348c6.993,0,14.003,1.257,20.749,3.781
	c23.903,8.944,74.544,68.649,99.629,100.407c-39.766,7.489-117.155,19.283-141.069,10.334c-14.791-5.535-26.54-16.497-33.084-30.868
	S19.224,177.955,24.76,163.165z"/>
<g>
	<path style="fill:#FFFFFF;" d="M65.088,224.147c1.752,0.649,7.39,2.16,21.838,2.16h0.044c2.332,0,4.834-0.042,7.433-0.124
		l-0.472-14.994c-2.458,0.077-4.812,0.128-7.004,0.116c-11.813,0-16.236-1.126-16.738-1.267c-3.742-1.421-7.048-3.55-9.828-6.331
		c-5.213-5.212-8.203-12.45-8.203-19.859c0-3.352,0.594-6.64,1.765-9.77l-14.05-5.258c-1.802,4.818-2.716,9.873-2.716,15.027
		c0,11.358,4.591,22.463,12.596,30.467C54.094,218.656,59.246,221.96,65.088,224.147z"/>
	<path style="fill:#FFFFFF;" d="M129.897,223.405c4.788-0.543,9.847-1.172,15.038-1.868l-1.995-14.869
		c-5.09,0.683-10.047,1.299-14.734,1.831L129.897,223.405z"/>
	<path style="fill:#FFFFFF;" d="M103.682,210.72l0.944,14.973c4.751-0.3,9.865-0.713,15.199-1.228l-1.44-14.933
		C113.215,210.031,108.27,210.431,103.682,210.72z"/>
</g>
<path d="M232.552,181.218l8.032,8.829l4.471-11.066c3.646-9.027,35.488-89.009,30.441-117.212
	c-5.533-30.918-35.191-51.569-66.109-46.039c-14.978,2.68-28.015,11.033-36.711,23.519c-8.695,12.486-12.008,27.611-9.328,42.588
	C168.396,110.041,226,174.016,232.552,181.218z M184.988,47.822c6.406-9.198,16.01-15.351,27.043-17.325
	c2.489-0.446,4.966-0.661,7.412-0.661c19.926,0,37.657,14.289,41.287,34.575c3.151,17.609-14.301,69.01-25.16,97.621
	c-20.107-23.065-54.3-65.218-57.453-82.838C176.142,68.161,178.582,57.02,184.988,47.822z"/>
<path style="fill:#FFFFFF;" d="M233.023,109.996c-15.267-19.81-23.276-32.95-24.443-37.186l-14.464,3.983
	c2.72,9.875,18.099,30.778,27.024,42.359L233.023,109.996z"/>
<path d="M282.207,307.013l-8.147-8.723l-4.326,11.124c-3.047,7.837-29.641,77.277-24.925,101.776
	c2.527,13.132,10.018,24.494,21.091,31.991c8.384,5.678,18.061,8.625,27.966,8.625c3.177,0,6.38-0.304,9.569-0.917
	c13.131-2.528,24.494-10.018,31.991-21.091c7.499-11.073,10.235-24.403,7.708-37.535
	C338.418,367.764,287.946,313.159,282.207,307.013z M323.004,421.387c-5.252,7.755-13.208,13.001-22.405,14.772
	c-9.197,1.771-18.532-0.146-26.288-5.398s-13.001-13.208-14.772-22.405l0,0c-2.572-13.36,9.53-53.495,19.902-82.106
	c20.251,22.711,46.386,55.48,48.96,68.849C330.173,404.296,328.256,413.632,323.004,421.387z"/>
<path style="fill:#FFFFFF;" d="M275.354,404.706l14.982-0.771c-0.154-2.99,1.235-11.791,5.599-27.521l-14.456-4.009
	C277.121,388.119,275.06,398.987,275.354,404.706z"/>
</svg>
